<?xml version="1.0" standalone="no"?>
<!DOCTYPE svg PUBLIC "-//W3C//DTD SVG 20010904//EN"
 "http://www.w3.org/TR/2001/REC-SVG-20010904/DTD/svg10.dtd">
<svg version="1.0" xmlns="http://www.w3.org/2000/svg"
  viewBox="0 0 400.000000 121.000000"
 preserveAspectRatio="xMidYMid meet">

<g transform="translate(0.000000,121.000000) scale(0.100000,-0.100000)"
fill="#000000" stroke="none">
<path d="M339 1200 c-38 -7 -91 -27 -151 -58 -5 -2 -8 8 -8 22 l0 26 -90 0
-90 0 0 -565 0 -565 90 0 90 0 0 206 c0 192 1 206 17 199 119 -50 184 -61 266
-46 182 33 319 180 334 358 16 192 -101 362 -286 417 -58 17 -98 18 -172 6z
m135 -182 c91 -28 154 -131 144 -236 -14 -142 -184 -235 -311 -171 -91 46
-127 99 -129 191 -4 161 137 263 296 216z"/>
<path d="M1160 1196 c-73 -21 -92 -31 -148 -75 -267 -211 -161 -635 175 -701
81 -16 139 -7 220 36 68 35 82 34 83 -8 0 -16 11 -18 85 -18 l85 0 0 380 0
380 -85 0 -85 0 0 -31 c0 -17 -3 -29 -7 -27 -5 2 -38 18 -76 36 -80 39 -175
50 -247 28z m200 -193 c159 -84 160 -300 1 -386 -94 -52 -198 -32 -274 52 -80
89 -75 204 14 293 74 74 167 89 259 41z"/>
<path d="M2065 1193 c-22 -9 -52 -25 -67 -35 l-28 -19 0 25 c0 26 0 26 -90 26
l-90 0 0 -380 0 -380 90 0 90 0 0 228 c0 261 7 290 78 337 57 37 108 42 167
16 26 -12 49 -20 50 -19 1 2 10 19 20 38 10 19 28 49 41 67 13 17 24 34 24 38
0 3 -28 19 -63 35 -80 38 -166 47 -222 23z"/>
<path d="M2610 1195 c-107 -31 -209 -118 -258 -223 -24 -50 -27 -69 -27 -162
0 -93 3 -112 27 -162 95 -203 327 -291 523 -199 l67 31 -4 -88 c-3 -79 -6 -93
-32 -126 -86 -113 -237 -122 -361 -20 l-56 45 -59 -53 c-33 -29 -60 -56 -60
-59 0 -18 110 -103 174 -134 163 -81 351 -44 476 92 90 99 90 97 90 608 l0
445 -90 0 -90 0 0 -29 0 -29 -67 34 c-83 42 -169 52 -253 29z m211 -193 c39
-20 62 -41 84 -77 27 -43 30 -57 30 -125 0 -69 -3 -80 -28 -113 -16 -21 -52
-51 -80 -67 -192 -110 -406 93 -306 290 56 112 186 152 300 92z"/>
<path d="M3457 1176 c-148 -61 -237 -174 -252 -321 -27 -251 172 -458 426
-443 l78 5 6 -29 c4 -15 10 -28 15 -28 5 0 32 43 61 96 41 77 49 98 38 105
-27 18 -177 99 -183 99 -3 0 -4 -17 -3 -37 l2 -38 -58 2 c-175 6 -267 206
-160 350 88 119 276 114 359 -9 43 -63 50 -120 25 -194 -11 -33 -19 -59 -18
-60 32 -20 137 -74 145 -74 17 0 52 107 59 177 17 177 -107 356 -280 408 -79
23 -190 19 -260 -9z"/>
</g>
</svg>
